HIERARCHY
ROOT Hips
{
	OFFSET 0.00000 0.00000 0.00000
	CHANNELS 6 Xposition Yposition Zposition Yrotation Zrotation Xrotation 
	JOINT Lumbar
	{
		OFFSET 0 0 0
		CHANNELS 3 Zrotation Xrotation Yrotation
		JOINT Neck
		{
			OFFSET 0.00 0.2701 0.00
			CHANNELS 3 Zrotation Xrotation Yrotation
			End Site
			{
				OFFSET 0.00 0.1379 0.00
			}
		}
		JOINT RightShoulder
		{
			OFFSET 0.0119 0.2289 0.1181
			CHANNELS 3 Zrotation Xrotation Yrotation
			JOINT RightElbow
			{
				OFFSET 0.00 -0.1475 0.00
				CHANNELS 2 Zrotation Yrotation
				JOINT RightWrist
				{
					OFFSET 0.00 -0.1605 0.00
					CHANNELS 2 Zrotation Xrotation
					End Site
					{
						OFFSET 0.0040 -0.1068 0.0006
					}
				}
			}
		}
		JOINT LeftShoulder
		{
			OFFSET 0.0119 0.2289 -0.1181
			CHANNELS 3 Zrotation Xrotation Yrotation
			JOINT LeftElbow
			{
				OFFSET 0.00 -0.1475 0.00
				CHANNELS 2 Zrotation Yrotation
				JOINT LeftWrist
				{
					OFFSET 0.00 -0.1605 0.00
					CHANNELS 2 Zrotation Xrotation
					End Site
					{
						OFFSET 0.0040 -0.1068 -0.0006
					}
				}
			}
		}
	}
	JOINT RightHip
	{
		OFFSET 0.0316 -0.0424 0.0458
		CHANNELS 3 Zrotation Xrotation Yrotation
		JOINT RightKnee
		{
			OFFSET 0.00 -0.2438 0.00
			CHANNELS 1 Zrotation
			JOINT RightAnkle
			{
				OFFSET 0.00 -0.2449 0.00
				CHANNELS 3 Zrotation Xrotation Yrotation
				End Site
				{
					OFFSET 0.1237 -0.0542 0.0051
				}
			}
		}
	}
	JOINT LeftHip
	{
		OFFSET 0.0316 -0.0424 -0.0458
		CHANNELS 3 Zrotation Xrotation Yrotation
		JOINT LeftKnee
		{
			OFFSET 0.00 -0.2438 0.00
			CHANNELS 1 Zrotation
			JOINT LeftAnkle
			{
				OFFSET 0.00 -0.2449 0.00
				CHANNELS 3 Zrotation Xrotation Yrotation
				End Site
				{
					OFFSET 0.1237 -0.0542 -0.0051
				}
			}
		}
	}
}
MOTION
Frames: 28
Frame Time: 0.02
-0.0001 3e-05 -0.00116 174.31481 -43.95431 -0.14161 56.70987 -0.15821 1.99215 -6.72523 -2.15533 -0.92972 137.6292 -78.17706 -69.49892 14.41427 76.49031 3.58973 -8.46122 148.68491 76.68341 85.52864 9.06575 -71.12856 4.91469 8.90171 49.13353 -3.95517 -15.71586 -19.81938 -7.17347 -2.95804 -3.71059 50.50793 6.57151 9.86951 -24.02899 -8.18917 3.57806 4.06912
-0.00041 -1e-05 -0.00118 174.25908 -43.979 -0.21568 56.80438 -0.14263 1.90065 -6.74229 -2.0071 -0.93185 136.50476 -78.15609 -70.36818 14.25857 76.47646 3.58798 -8.42099 148.94153 76.66694 85.42727 9.10454 -71.13379 4.90737 8.90959 49.12672 -3.86392 -15.49597 -19.80016 -7.18078 -2.98124 -3.72196 50.49852 6.61328 9.83892 -24.02754 -8.17574 3.57983 4.06823
-0.00072 -5e-05 -0.0012 174.20356 -44.00362 -0.28953 56.89866 -0.12705 1.80932 -6.75935 -1.85924 -0.93397 135.38256 -78.13512 -71.23558 14.10317 76.46262 3.58617 -8.3809 149.19723 76.65057 85.32631 9.14329 -71.13896 4.90005 8.91759 49.11991 -3.7729 -15.27633 -19.78099 -7.18809 -3.00441 -3.73331 50.48911 6.65497 9.8087 -24.02611 -8.16232 3.58158 4.06733
-0.00103 -9e-05 -0.00121 174.148 -44.02823 -0.36338 56.99288 -0.11151 1.71809 -6.77637 -1.71145 -0.9361 134.26136 -78.1142 -72.10231 13.94793 76.4488 3.58441 -8.34081 149.45307 76.63416 85.22525 9.18197 -71.14418 4.89275 8.92547 49.11312 -3.68193 -15.05701 -19.76183 -7.19539 -3.02754 -3.74465 50.47973 6.69663 9.77825 -24.02467 -8.14892 3.58334 4.06645
-0.00134 -0.00013 -0.00123 174.09225 -44.05292 -0.43743 57.08731 -0.09598 1.62674 -6.79339 -1.56333 -0.93823 133.13843 -78.0933 -72.97056 13.79246 76.435 3.58274 -8.30057 149.7098 76.61762 85.12382 9.22066 -71.14945 4.88545 8.93318 49.10635 -3.59077 -14.83771 -19.74262 -7.20267 -3.05068 -3.75599 50.47038 6.73835 9.7473 -24.02322 -8.13552 3.58513 4.06557
-0.00165 -0.00017 -0.00125 174.03721 -44.07737 -0.51085 57.18126 -0.08032 1.53545 -6.81052 -1.41605 -0.94035 132.01785 -78.07221 -73.8361 13.63722 76.42108 3.58065 -8.26077 149.96326 76.60162 85.02388 9.25955 -71.1544 4.87808 8.94178 49.09945 -3.50005 -14.61744 -19.72355 -7.21007 -3.07392 -3.76739 50.46082 6.77995 9.71861 -24.02181 -8.12205 3.5868 4.06462
-0.00197 -0.00021 -0.00127 173.98077 -44.10228 -0.58547 57.27608 -0.06494 1.44414 -6.8274 -1.26722 -0.94248 130.89368 -78.0515 -74.7062 13.48169 76.4074 3.57938 -8.22016 150.22323 76.58455 84.92091 9.298 -71.16005 4.8709 8.9486 49.09283 -3.4085 -14.39909 -19.70421 -7.21722 -3.09694 -3.77866 50.45171 6.82177 9.68547 -24.02033 -8.10874 3.58871 4.06383
-0.00228 -0.00025 -0.00128 173.92568 -44.12674 -0.65897 57.37007 -0.0493 1.35286 -6.84452 -1.11986 -0.9446 129.77303 -78.03049 -75.57199 13.32644 76.39351 3.57738 -8.18026 150.47682 76.56845 84.82096 9.33681 -71.16497 4.86348 8.957 49.0859 -3.31782 -14.17946 -19.68512 -7.22457 -3.12012 -3.79003 50.44216 6.86335 9.65632 -24.01891 -8.09528 3.59039 4.06289
-0.00259 -0.00028 -0.00129 173.87199 -44.15077 -0.73119 57.46321 -0.03333 1.26152 -6.8619 -0.97404 -0.94671 128.65516 -78.00889 -76.43343 13.17135 76.37929 3.5744 -8.14136 150.72416 76.55363 84.72379 9.37627 -71.16929 4.856 8.9676 49.07881 -3.22774 -13.95612 -19.66632 -7.2323 -3.14372 -3.8016 50.43216 6.90481 9.63255 -24.01757 -8.08165 3.59182 4.06177
-0.0029 -0.00033 -0.00133 173.80948 -44.17765 -0.81106 57.56176 -0.0192 1.1702 -6.87768 -0.81859 -0.9489 127.51664 -77.99001 -77.32271 13.01478 76.36677 3.5768 -8.09712 151.01216 76.53173 84.60789 9.41264 -71.17794 4.84957 8.96636 49.07329 -3.13281 -13.74767 -19.64581 -7.23829 -3.16557 -3.81228 50.425 6.94749 9.57931 -24.01579 -8.06902 3.59477 4.06169
-0.00321 -0.00036 -0.00131 173.76606 -44.19829 -0.87457 57.64854 -0.00125 1.07906 -6.89692 -0.68397 -0.95091 126.4249 -77.96582 -78.15128 12.86174 76.35078 3.56803 -8.06389 151.21137 76.52458 84.53325 9.4551 -71.17689 4.8405 8.98956 49.06406 -3.04902 -13.51201 -19.62894 -7.24765 -3.19068 -3.82463 50.4117 6.98724 9.58728 -24.01494 -8.05428 3.59446 4.05943
-0.00351 -0.00038 -0.00117 173.7717 -44.20342 -0.89474 57.70546 0.02766 0.98665 -6.92509 -0.6028 -0.95242 125.43413 -77.92348 -78.82845 12.71504 76.32438 3.52668 -8.06327 151.18707 76.56016 84.55586 9.51776 -71.15374 4.8267 9.08481 49.04785 -2.98839 -13.1656 -19.62192 -7.26877 -3.22836 -3.84335 50.38256 7.02194 9.77326 -24.01661 -8.03374 3.58542 4.05097
-0.00381 -0.0004 -0.00097 173.79715 -44.20194 -0.89817 57.75003 0.06029 0.8948 -6.95688 -0.54329 -0.95376 124.4944 -77.87657 -79.4418 12.57244 76.29477 3.47444 -8.07332 151.06852 76.61029 84.6209 9.58568 -71.12006 4.80929 9.20353 49.0273 -2.94023 -12.79802 -19.6186 -7.29284 -3.2687 -3.86343 50.34703 7.05317 10.01904 -24.01922 -8.0111 3.57305 4.04035
-0.00411 -0.00041 -0.00079 173.81569 -44.20253 -0.90829 57.79876 0.0909 0.80375 -6.98734 -0.47622 -0.95515 123.5504 -77.83396 -80.07457 12.43024 76.26708 3.42848 -8.07689 150.98164 76.65208 84.67952 9.6492 -71.08822 4.79253 9.30846 49.00667 -2.89125 -12.46441 -19.61367 -7.31384 -3.30538 -3.88165 50.31383 7.08403 10.23068 -24.0214 -7.98942 3.56204 4.03085
-0.00441 -0.00043 -0.00062 173.82533 -44.20727 -0.92235 57.85391 0.12296 0.70798 -7.01629 -0.39933 -0.95661 122.53061 -77.78154 -80.74801 12.27874 76.23701 3.377 -8.08721 150.94721 76.70057 84.6921 9.72211 -71.06863 4.782 9.42726 48.99478 -2.82213 -12.03021 -19.60838 -7.34196 -3.35215 -3.90496 50.28323 7.12302 10.4711 -24.02355 -7.96767 3.55166 4.0208
-0.00471 -0.00045 -0.00043 173.85831 -44.20151 -0.92411 57.8924 0.15279 0.6225 -7.04948 -0.3483 -0.95792 121.67579 -77.749 -81.3212 12.14726 76.21166 3.33428 -8.08621 150.77429 76.73934 84.80036 9.77561 -71.0212 4.75503 9.52193 48.96357 -2.79755 -11.79769 -19.60481 -7.35619 -3.37887 -3.91817 50.24547 7.14435 10.66671 -24.02605 -7.94562 3.53919 4.01136
-0.00499 -0.00047 -0.0002 173.95008 -44.1708 -0.89715 57.8909 0.17622 0.56268 -7.09141 -0.36106 -0.95877 121.28728 -77.76762 -81.63686 12.07182 76.19874 3.31809 -8.05095 150.28345 76.74223 85.21411 9.78391 -70.89798 4.70161 9.54794 48.88086 -2.89625 -12.15232 -19.60436 -7.32909 -3.3466 -3.90174 50.19148 7.11665 10.71471 -24.0288 -7.92284 3.52185 4.00436
-0.00526 -0.00051 6e-05 174.06478 -44.12922 -0.85816 57.87238 0.19709 0.51378 -7.13788 -0.39953 -0.9596 121.04534 -77.80713 -81.85314 12.01526 76.19309 3.31002 -8.00501 149.63656 76.73687 85.68809 9.77092 -70.74737 4.62551 9.54604 48.77873 -3.03881 -12.70641 -19.60576 -7.28828 -3.29455 -3.87533 50.13014 7.0714 10.7168 -24.03201 -7.89994 3.50254 3.99803
-0.00553 -0.00054 0.0003 174.1695 -44.09111 -0.82395 57.85988 0.21873 0.46152 -7.18361 -0.42775 -0.96041 120.73797 -77.84048 -82.11258 11.94988 76.18231 3.29988 -7.96299 149.04945 76.73763 86.13227 9.76108 -70.61026 4.55161 9.55715 48.68496 -3.15894 -13.15219 -19.60662 -7.25522 -3.25356 -3.85447 50.07086 7.03502 10.74657 -24.0353 -7.87731 3.48406 3.99121
-0.00582 -0.00057 0.00055 174.27312 -44.05926 -0.79214 57.85477 0.24236 0.4022 -7.22384 -0.45065 -0.96097 120.48217 -77.86034 -82.37843 11.8889 76.17033 3.28717 -7.92122 148.55616 76.72479 86.69055 9.77809 -70.46836 4.52363 9.57636 48.59293 -3.28961 -13.66999 -19.60584 -7.21596 -3.20416 -3.82951 50.01673 6.99513 10.75159 -24.03727 -7.85353 3.46563 3.98502
-0.00607 -0.0006 0.00079 174.38415 -44.01154 -0.7526 57.82965 0.26094 0.36057 -7.2766 -0.49046 -0.96249 120.08441 -77.91238 -82.60795 11.81913 76.17363 3.27604 -7.88133 147.76879 76.74324 86.89656 9.73514 -70.33002 4.37985 9.56091 48.49282 -3.40914 -14.08772 -19.60949 -7.18617 -3.16726 -3.81056 49.95026 6.95791 10.79402 -24.04228 -7.83234 3.4468 3.97779
-0.00623 -0.00061 0.00102 174.50986 -43.92609 -0.69568 57.75992 0.26846 0.36241 -7.36168 -0.57021 -0.96288 119.85443 -78.04938 -82.74694 11.76107 76.12142 3.30982 -7.80179 146.74481 76.79605 87.27683 9.53456 -70.21471 4.04726 9.55469 48.37497 -3.48193 -14.15904 -19.61969 -7.18726 -3.17216 -3.81185 49.8513 6.93728 10.97301 -24.05398 -7.8167 3.42612 3.96659
-0.00633 -0.00062 0.00125 174.64187 -43.82472 -0.63145 57.66956 0.2707 0.38275 -7.45889 -0.66585 -0.96485 119.37095 -78.21299 -82.84443 11.68996 76.10104 3.33192 -7.73056 145.33024 76.88355 87.1281 9.28212 -70.10693 3.57471 9.49997 48.2501 -3.54262 -14.12574 -19.63524 -7.1981 -3.18988 -3.81933 49.74046 6.9194 11.18771 -24.06903 -7.8039 3.40525 3.95441
-0.00645 -0.00064 0.00147 174.77136 -43.7281 -0.56978 57.58434 0.27365 0.39569 -7.55196 -0.75468 -0.96874 118.60516 -78.36983 -82.98524 11.59304 76.13056 3.33796 -7.69009 143.74281 76.99959 86.40262 9.04113 -69.9862 3.08499 9.3981 48.12811 -3.61257 -14.15579 -19.65172 -7.20352 -3.20007 -3.82319 49.63492 6.89655 11.37021 -24.0836 -7.79097 3.38544 3.94336
-0.00662 -0.00065 0.00171 174.9014 -43.64048 -0.51022 57.51605 0.28301 0.40242 -7.64153 -0.84355 -0.96193 119.4985 -78.52489 -83.06608 11.61419 75.8936 3.45535 -7.51474 143.62968 76.95749 88.94538 8.8166 -69.88767 2.93876 9.57154 48.00518 -3.66934 -14.13059 -19.65407 -7.21255 -3.21666 -3.83009 49.52863 6.88727 11.61495 -24.09378 -7.77349 3.36188 3.92973
-0.00666 -0.00067 0.00191 175.02999 -43.53186 -0.44555 57.40827 0.27861 0.42925 -7.73853 -0.93468 -0.97725 116.90445 -78.66466 -83.20457 11.40689 76.21288 3.31176 -7.60826 140.35434 77.21649 84.78498 8.58836 -69.76647 2.04009 9.18025 47.88476 -3.74869 -14.18734 -19.68714 -7.21666 -3.22335 -3.8323 49.42233 6.85252 11.74366 -24.11389 -7.76572 3.34555 3.92089
-0.00636 -0.00074 0.00204 175.16638 -43.3571 -0.36111 57.19212 0.23011 0.48121 -7.87426 -1.03742 -1.05776 104.49127 -78.9691 -84.02124 10.38939 78.11025 2.68695 -8.56645 128.46961 78.61196 60.22103 7.98522 -69.38966 -0.85841 7.06802 47.75591 -3.90546 -14.54497 -19.80302 -7.20404 -3.19875 -3.8196 49.30888 6.72989 11.50296 -24.16055 -7.78796 3.35423 3.92846
-0.00593 -0.00082 0.00214 175.29901 -43.16391 -0.27307 56.93746 0.16907 0.55685 -8.01188 -1.14012 -1.15968 88.63323 -79.21678 -84.80715 9.1735 80.55399 1.76469 -9.77359 113.42813 80.2507 29.27694 7.44167 -69.02016 -4.51059 4.41957 47.63277 -4.08299 -14.97935 -19.94952 -7.18635 -3.16402 -3.80211 49.19763 6.58444 11.15103 -24.217 -7.81922 3.36938 3.9404
